<?xml version="1.0" encoding="UTF-8" standalone="no"?>
<!DOCTYPE svg PUBLIC "-//W3C//DTD SVG 1.1//EN" "http://www.w3.org/Graphics/SVG/1.1/DTD/svg11.dtd">
<svg version="1.1" xmlns="http://www.w3.org/2000/svg" xmlns:xlink="http://www.w3.org/1999/xlink" preserveAspectRatio="xMidYMid meet" viewBox="0 0 300 40" width="300" height="40"><defs><path d="M31.47 10.54L31.47 30.88L9.44 30.88L9.44 10.54L31.47 10.54Z" id="c1JNnU4ePD"></path><path d="M64.47 10.54L64.47 30.88L42.44 30.88L42.44 10.54L64.47 10.54Z" id="a1iRyNtXh"></path><path d="M97.47 10.54L97.47 30.88L75.44 30.88L75.44 10.54L97.47 10.54Z" id="axa6P010M"></path><path d="M132.47 10.54L132.47 30.88L110.44 30.88L110.44 10.54L132.47 10.54Z" id="dA5S2RZ5B"></path><path d="M9.44 10.54L31.47 10.54L31.47 30.88L9.44 30.88L9.44 10.54Z" id="ad5TYcP6f"></path><path d="M42.44 10.54L64.47 10.54L64.47 30.88L42.44 30.88L42.44 10.54Z" id="d1sG4hUQGP"></path><path d="M75.44 10.54L97.47 10.54L97.47 30.88L75.44 30.88L75.44 10.54Z" id="a3fgzCrGuB"></path><path d="M110.44 10.54L132.47 10.54L132.47 30.88L110.44 30.88L110.44 10.54Z" id="bhMPg6kcs"></path></defs><g><g><g><use xlink:href="#c1JNnU4ePD" opacity="1" fill="#e92713" fill-opacity="1"></use><g><use xlink:href="#c1JNnU4ePD" opacity="1" fill-opacity="0" stroke="#000000" stroke-width="1" stroke-opacity="0"></use></g></g><g><use xlink:href="#a1iRyNtXh" opacity="1" fill="#e92713" fill-opacity="1"></use><g><use xlink:href="#a1iRyNtXh" opacity="1" fill-opacity="0" stroke="#000000" stroke-width="1" stroke-opacity="0"></use></g></g><g><use xlink:href="#axa6P010M" opacity="1" fill="#e92713" fill-opacity="1"></use><g><use xlink:href="#axa6P010M" opacity="1" fill-opacity="0" stroke="#000000" stroke-width="1" stroke-opacity="0"></use></g></g><g><use xlink:href="#dA5S2RZ5B" opacity="1" fill="#e92713" fill-opacity="1"></use><g><use xlink:href="#dA5S2RZ5B" opacity="1" fill-opacity="0" stroke="#000000" stroke-width="1" stroke-opacity="0"></use></g></g><g><use xlink:href="#ad5TYcP6f" opacity="1" fill="#e92713" fill-opacity="1"></use></g><g><use xlink:href="#d1sG4hUQGP" opacity="1" fill="#e92713" fill-opacity="1"></use></g><g><use xlink:href="#a3fgzCrGuB" opacity="1" fill="#e92713" fill-opacity="1"></use></g><g><use xlink:href="#bhMPg6kcs" opacity="1" fill="#e92713" fill-opacity="1"></use></g></g></g></svg>