<?xml version="1.0" encoding="utf-8"?>
<!-- Generator: Adobe Illustrator 23.1.0, SVG Export Plug-In . SVG Version: 6.00 Build 0)  -->
<svg version="1.1" id="Layer_1" xmlns="http://www.w3.org/2000/svg" xmlns:xlink="http://www.w3.org/1999/xlink" x="0px" y="0px"
	 viewBox="0 0 564 564" style="enable-background:new 0 0 564 564;" xml:space="preserve">
<style type="text/css">
	.st0{fill:#3A7FEF;}
</style>
<circle class="st0" cx="175.2" cy="176.1" r="168.5"/>
<circle class="st0" cx="391.4" cy="392.3" r="168.5"/>
<rect x="115.1" y="117" transform="matrix(0.7071 -0.7071 0.7071 0.7071 -118.052 283.7665)" class="st0" width="336.9" height="334.8"/>
<path d="M419.3,358l-6.1,72.2c-0.2,2.3-0.7,4.6-1.4,6.8l-32.6,100.2c-4.3,13.3-17.3,21.9-31.2,20.7l-156.3-13.1
	c-9.6-0.8-18.3-6.2-23.3-14.4L83.3,389.9c-8.6-14.2-4.1-32.8,10.2-41.4c14.3-8.6,32.8-4.1,41.4,10.2l21,34.7l17.4-207.4
	c1.4-16.6,16-28.9,32.6-27.5s28.9,16,27.5,32.6l-12.6,150.3l6,0.5l2.5-30.1c1.4-16.6,16-28.9,32.6-27.5s28.9,16,27.5,32.6l-2.5,30.1
	l6,0.5l1.5-18c1.4-16.6,16-28.9,32.6-27.5c16.6,1.4,28.9,16,27.5,32.6l-1.5,18l6,0.5c1.4-16.6,16-28.9,32.6-27.5
	S420.7,341.3,419.3,358z M221.9,401.9l-6-0.5l-6.1,72.2l6,0.5L221.9,401.9z M288,407.5l-6-0.5l-6.1,72.2l6,0.5L288,407.5z
	 M354.1,413l-6-0.5l-6.1,72.2l6,0.5L354.1,413z"/>
</svg>
