<?xml version="1.0" encoding="UTF-8" standalone="no"?>
<!DOCTYPE svg PUBLIC "-//W3C//DTD SVG 1.1//EN" "http://www.w3.org/Graphics/SVG/1.1/DTD/svg11.dtd">
<svg version="1.1" xmlns="http://www.w3.org/2000/svg" xmlns:xlink="http://www.w3.org/1999/xlink" preserveAspectRatio="xMidYMid meet" viewBox="0 0 640 640" width="640" height="640"><defs><path d="M320.5 97.63L319.94 592.53" id="c11pjQOKk8"></path><path d="M320.5 36.25C280.22 36.25 247.56 68.91 247.56 109.19C247.56 149.48 280.22 182.14 320.5 182.14C360.79 182.14 393.45 149.48 393.45 109.19C393.45 68.91 360.79 36.25 320.5 36.25Z" id="a1S1NBpjtg"></path><path d="M172.04 592.42L472.23 592.75" id="b1YAATRStc"></path><path d="M606.07 342.08C606.07 342.08 606.07 342.08 606.07 342.08C500.7 465.57 442.15 534.18 430.45 547.9C430.45 547.9 430.45 547.9 430.45 547.9C395.67 518.22 376.35 501.73 372.48 498.44C372.48 498.44 372.48 498.44 372.48 498.44C477.86 374.94 536.4 306.34 548.11 292.62C548.11 292.62 548.11 292.62 548.11 292.62C582.88 322.29 602.21 338.78 606.07 342.08Z" id="avrG8Wwff"></path><path d="M633.26 310.14C633.26 310.14 633.26 310.14 633.26 310.14C620.72 324.84 613.75 333.01 612.36 334.64C612.36 334.64 612.36 334.64 612.36 334.64C577.58 304.96 558.26 288.48 554.39 285.18C554.39 285.18 554.39 285.18 554.39 285.18C566.94 270.48 573.9 262.31 575.3 260.68C575.3 260.68 575.3 260.68 575.3 260.68C610.08 290.36 629.4 306.84 633.26 310.14Z" id="a1j2jmlHZm"></path><path d="M422.51 554.26L341.83 592.75L367.19 507.02L422.51 554.26Z" id="bdzVFkzlm"></path></defs><g><g><g><use xlink:href="#c11pjQOKk8" opacity="1" fill="#2134ed" fill-opacity="1"></use><g><use xlink:href="#c11pjQOKk8" opacity="1" fill-opacity="0" stroke="#1f31de" stroke-width="40" stroke-opacity="1"></use></g></g><g><use xlink:href="#a1S1NBpjtg" opacity="1" fill="#000000" fill-opacity="1"></use><g><use xlink:href="#a1S1NBpjtg" opacity="1" fill-opacity="0" stroke="#000000" stroke-width="1" stroke-opacity="1"></use></g></g><g><use xlink:href="#b1YAATRStc" opacity="1" fill="#000000" fill-opacity="0"></use><g><use xlink:href="#b1YAATRStc" opacity="1" fill-opacity="0" stroke="#000000" stroke-width="40" stroke-opacity="1"></use></g></g><g><use xlink:href="#avrG8Wwff" opacity="1" fill="#000000" fill-opacity="1"></use><g><use xlink:href="#avrG8Wwff" opacity="1" fill-opacity="0" stroke="#000000" stroke-width="5" stroke-opacity="1"></use></g></g><g><use xlink:href="#a1j2jmlHZm" opacity="1" fill="#000000" fill-opacity="1"></use><g><use xlink:href="#a1j2jmlHZm" opacity="1" fill-opacity="0" stroke="#000000" stroke-width="5" stroke-opacity="1"></use></g></g><g><use xlink:href="#bdzVFkzlm" opacity="1" fill="#000000" fill-opacity="1"></use><g><use xlink:href="#bdzVFkzlm" opacity="1" fill-opacity="0" stroke="#000000" stroke-width="5" stroke-opacity="1"></use></g></g></g></g></svg>