<?xml version="1.0" encoding="UTF-8" standalone="no"?>
<!DOCTYPE svg PUBLIC "-//W3C//DTD SVG 1.1//EN" "http://www.w3.org/Graphics/SVG/1.1/DTD/svg11.dtd">
<svg version="1.1" xmlns="http://www.w3.org/2000/svg" xmlns:xlink="http://www.w3.org/1999/xlink" preserveAspectRatio="xMidYMid meet" viewBox="0 0 640 640" width="640" height="640"><defs><path d="M84.05 563.69L555.95 563.69" id="cnF9UghSW"></path><path d="M76.31 490.75C36.02 490.75 3.37 523.4 3.37 563.69C3.37 603.98 36.02 636.63 76.31 636.63C116.6 636.63 149.25 603.98 149.25 563.69C149.25 523.4 116.6 490.75 76.31 490.75Z" id="aVX4rQoXA"></path><path d="M552.24 490.75C511.96 490.75 479.3 523.4 479.3 563.69C479.3 603.98 511.96 636.63 552.24 636.63C592.53 636.63 625.19 603.98 625.19 563.69C625.19 523.4 592.53 490.75 552.24 490.75Z" id="i16VSEY12i"></path><path d="M506.49 145.55C506.49 145.55 506.49 145.55 506.49 145.55C348.36 330.87 260.51 433.82 242.94 454.41C242.94 454.41 242.94 454.41 242.94 454.41C190.75 409.88 161.75 385.13 155.96 380.19C155.96 380.19 155.96 380.19 155.96 380.19C314.08 194.87 401.93 91.92 419.5 71.33C419.5 71.33 419.5 71.33 419.5 71.33C471.69 115.86 500.69 140.61 506.49 145.55Z" id="bcifwTyqN"></path><path d="M547.34 97.54C547.34 97.54 547.34 97.54 547.34 97.54C528.5 119.62 518.04 131.88 515.94 134.33C515.94 134.33 515.94 134.33 515.94 134.33C463.75 89.8 434.75 65.05 428.95 60.11C428.95 60.11 428.95 60.11 428.95 60.11C447.79 38.03 458.26 25.77 460.35 23.31C460.35 23.31 460.35 23.31 460.35 23.31C512.54 67.85 541.54 92.59 547.34 97.54Z" id="f6Yg7cuELF"></path><path d="M231.18 463.81L110.2 521.61L148.24 393L231.18 463.81Z" id="c4AkaKMkxY"></path></defs><g><g><g><use xlink:href="#cnF9UghSW" opacity="1" fill="#000000" fill-opacity="0"></use><g><use xlink:href="#cnF9UghSW" opacity="1" fill-opacity="0" stroke="#0d6b2b" stroke-width="40" stroke-opacity="1"></use></g></g><g><use xlink:href="#aVX4rQoXA" opacity="1" fill="#000000" fill-opacity="1"></use><g><use xlink:href="#aVX4rQoXA" opacity="1" fill-opacity="0" stroke="#000000" stroke-width="1" stroke-opacity="1"></use></g></g><g><use xlink:href="#i16VSEY12i" opacity="1" fill="#000000" fill-opacity="1"></use><g><use xlink:href="#i16VSEY12i" opacity="1" fill-opacity="0" stroke="#000000" stroke-width="1" stroke-opacity="1"></use></g></g><g><use xlink:href="#bcifwTyqN" opacity="1" fill="#000000" fill-opacity="1"></use><g><use xlink:href="#bcifwTyqN" opacity="1" fill-opacity="0" stroke="#000000" stroke-width="5" stroke-opacity="1"></use></g></g><g><use xlink:href="#f6Yg7cuELF" opacity="1" fill="#000000" fill-opacity="1"></use><g><use xlink:href="#f6Yg7cuELF" opacity="1" fill-opacity="0" stroke="#000000" stroke-width="5" stroke-opacity="1"></use></g></g><g><use xlink:href="#c4AkaKMkxY" opacity="1" fill="#000000" fill-opacity="1"></use><g><use xlink:href="#c4AkaKMkxY" opacity="1" fill-opacity="0" stroke="#000000" stroke-width="5" stroke-opacity="1"></use></g></g></g></g></svg>