<?xml version="1.0" encoding="UTF-8" standalone="no"?>
<!DOCTYPE svg PUBLIC "-//W3C//DTD SVG 1.1//EN" "http://www.w3.org/Graphics/SVG/1.1/DTD/svg11.dtd">
<svg version="1.1" xmlns="http://www.w3.org/2000/svg" xmlns:xlink="http://www.w3.org/1999/xlink" preserveAspectRatio="xMidYMid meet" viewBox="0 0 640 640" width="640" height="640"><defs><path d="M544.44 563.62L72.55 563.62" id="alHz0PxPe"></path><path d="M552.18 490.67C592.47 490.67 625.13 523.33 625.13 563.62C625.13 603.9 592.47 636.56 552.18 636.56C511.9 636.56 479.24 603.9 479.24 563.62C479.24 523.33 511.9 490.67 552.18 490.67Z" id="fYdRNg6Pg"></path><path d="M76.25 490.67C116.54 490.67 149.2 523.33 149.2 563.62C149.2 603.9 116.54 636.56 76.25 636.56C35.97 636.56 3.31 603.9 3.31 563.62C3.31 523.33 35.97 490.67 76.25 490.67Z" id="a2bnxZdpuf"></path><path d="M122 145.48C122 145.48 122 145.48 122 145.48C280.13 330.8 367.98 433.75 385.55 454.34C385.55 454.34 385.55 454.34 385.55 454.34C437.74 409.81 466.74 385.06 472.54 380.11C472.54 380.11 472.54 380.11 472.54 380.11C314.41 194.8 226.56 91.85 208.99 71.26C208.99 71.26 208.99 71.26 208.99 71.26C156.8 115.79 127.8 140.54 122 145.48Z" id="ciC8IfaOX"></path><path d="M81.16 97.47C81.16 97.47 81.16 97.47 81.16 97.47C99.99 119.55 110.46 131.81 112.55 134.26C112.55 134.26 112.55 134.26 112.55 134.26C164.74 89.73 193.74 64.98 199.54 60.04C199.54 60.04 199.54 60.04 199.54 60.04C180.7 37.96 170.24 25.7 168.14 23.24C168.14 23.24 168.14 23.24 168.14 23.24C115.95 67.78 86.95 92.52 81.16 97.47Z" id="b7RSO9jVdd"></path><path d="M397.32 463.74L518.29 521.54L480.25 392.93L397.32 463.74Z" id="bg3Rwy3bi"></path></defs><g><g><g><g><filter id="shadow14557354" x="63.55" y="554.62" width="490.89" height="19" filterUnits="userSpaceOnUse" primitiveUnits="userSpaceOnUse"><feFlood></feFlood><feComposite in2="SourceAlpha" operator="in"></feComposite><feGaussianBlur stdDeviation="1"></feGaussianBlur><feOffset dx="1" dy="1" result="afterOffset"></feOffset><feFlood flood-color="#ed0b0b" flood-opacity="0.5"></feFlood><feComposite in2="afterOffset" operator="in"></feComposite><feMorphology operator="dilate" radius="1"></feMorphology><feComposite in2="SourceAlpha" operator="out"></feComposite></filter><path d="M544.44 563.62L72.55 563.62" id="b1F2LKU53P" fill="none" stroke="white" filter="url(#shadow14557354)"></path></g><use xlink:href="#alHz0PxPe" opacity="1" fill="#e21e1e" fill-opacity="1"></use><g><use xlink:href="#alHz0PxPe" opacity="1" fill-opacity="0" stroke="#e21e1e" stroke-width="40" stroke-opacity="1"></use></g></g><g><use xlink:href="#fYdRNg6Pg" opacity="1" fill="#000000" fill-opacity="1"></use><g><use xlink:href="#fYdRNg6Pg" opacity="1" fill-opacity="0" stroke="#000000" stroke-width="1" stroke-opacity="1"></use></g></g><g><use xlink:href="#a2bnxZdpuf" opacity="1" fill="#000000" fill-opacity="1"></use><g><use xlink:href="#a2bnxZdpuf" opacity="1" fill-opacity="0" stroke="#000000" stroke-width="1" stroke-opacity="1"></use></g></g><g><use xlink:href="#ciC8IfaOX" opacity="1" fill="#000000" fill-opacity="1"></use><g><use xlink:href="#ciC8IfaOX" opacity="1" fill-opacity="0" stroke="#000000" stroke-width="5" stroke-opacity="1"></use></g></g><g><use xlink:href="#b7RSO9jVdd" opacity="1" fill="#000000" fill-opacity="1"></use><g><use xlink:href="#b7RSO9jVdd" opacity="1" fill-opacity="0" stroke="#000000" stroke-width="5" stroke-opacity="1"></use></g></g><g><use xlink:href="#bg3Rwy3bi" opacity="1" fill="#000000" fill-opacity="1"></use><g><use xlink:href="#bg3Rwy3bi" opacity="1" fill-opacity="0" stroke="#000000" stroke-width="5" stroke-opacity="1"></use></g></g></g></g></svg>