<?xml version="1.0" encoding="utf-8"?>
<!-- Generator: Adobe Illustrator 23.1.0, SVG Export Plug-In . SVG Version: 6.00 Build 0)  -->
<svg version="1.1" id="Layer_1" xmlns="http://www.w3.org/2000/svg" xmlns:xlink="http://www.w3.org/1999/xlink" x="0px" y="0px"
	 viewBox="0 0 570.3 570.3" style="enable-background:new 0 0 570.3 570.3;" xml:space="preserve">
<style type="text/css">
	.st0{fill:#BC1D1D;stroke:#AA1F24;stroke-miterlimit:10;}
	.st1{stroke:#000000;stroke-width:5;stroke-miterlimit:10;}
</style>
<title>standard_edge</title>
<path class="st0" d="M208.2,207.5c-85.4,0-154.6,69.2-154.6,154.6s69.2,154.6,154.6,154.6s154.6-69.2,154.6-154.6
	S293.5,207.5,208.2,207.5z M208.2,441.4c-43.8,0-79.3-35.5-79.3-79.3s35.5-79.3,79.3-79.3s79.3,35.5,79.3,79.3
	S251.9,441.4,208.2,441.4z"/>
<title>standard_edge</title>
<rect x="324.7" y="44.4" transform="matrix(0.7607 0.6491 -0.6491 0.7607 207.7388 -192.118)" class="st1" width="79.5" height="282.5"/>
<rect x="433.9" y="40.9" transform="matrix(0.7607 0.6491 -0.6491 0.7607 150.795 -293.643)" class="st1" width="79.5" height="33.7"/>
<polygon class="st1" points="237.1,276.2 294.9,325.5 210.7,365.7 "/>
</svg>
